# xmcd CD database file
#
# Track frame offsets:
#	150
#	13144
#	27652
#	43060
#	55378
#	67305
#	82307
#	97137
#	111125
#	124889
#	137442
#	151573
#	161842
#	172556
#	186179
#	198599
#	211545
#	223059
#	235378
#	248194
#	261436
#	274631
#	289282
#	303934
#
# Disc length: 4201 seconds
#
# Revision: 0
# Processed by: cddbd v1.5.2PL0 Copyright (c) Steve Scherf et al.
# Submitted via: CDex 1.70beta2
#
DISCID=6c106718
DTITLE=Art Tatum - Jazz Roads CD153 - Swing - Art Tatum Vol.1 (1937-41)
DYEAR=2006
DGENRE=Jazz
TTITLE0=Art Tatum - Gone With The Wind
TTITLE1=Art Tatum - Stormy Weather
TTITLE2=Art Tatum - Chloe
TTITLE3=Art Tatum - The Sheik Of Araby
TTITLE4=Art Tatum - Tea For Two
TTITLE5=Art Tatum - Deep Purple
TTITLE6=Art Tatum - Elegie
TTITLE7=Art Tatum - Humoresque
TTITLE8=Art Tatum - Sweet Lorraine
TTITLE9=Art Tatum - Get Happy
TTITLE10=Art Tatum - Lullaby Of The Leaves
TTITLE11=Art Tatum - Tiger Rag
TTITLE12=Art Tatum - Emaline
TTITLE13=Art Tatum - Moonglow
TTITLE14=Art Tatum - Love Me Tonight
TTITLE15=Art Tatum - Cocktails For Two
TTITLE16=Art Tatum - St. Louis Blues
TTITLE17=Art Tatum - Begin The Beguine
TTITLE18=Art Tatum - Rosetta
TTITLE19=Art Tatum - Indiana
TTITLE20=Art Tatum And His Band - Wee Baby Blues
TTITLE21=Art Tatum And His Band - Stompin' At The Savoy
TTITLE22=Art Tatum And His Band - Last Goodbye Blues
TTITLE23=Art Tatum And His Band - Battery Bounce
EXTD=YEAR: 2006
EXTT0=
EXTT1=
EXTT2=
EXTT3=
EXTT4=
EXTT5=
EXTT6=
EXTT7=
EXTT8=
EXTT9=
EXTT10=
EXTT11=
EXTT12=
EXTT13=
EXTT14=
EXTT15=
EXTT16=
EXTT17=
EXTT18=
EXTT19=
EXTT20=
EXTT21=
EXTT22=
EXTT23=
PLAYORDER=
